<svg width="26" height="26" viewBox="0 0 26 26" fill="none" xmlns="http://www.w3.org/2000/svg">
<path d="M19 9.4C19 7.70261 18.3679 6.07475 17.2426 4.87452C16.1174 3.67428 14.5913 3 13 3C11.4087 3 9.88258 3.67428 8.75736 4.87452C7.63214 6.07475 7 7.70261 7 9.4C7 16.8667 4 19 4 19H22C22 19 19 16.8667 19 9.4Z" stroke="black" stroke-width="1.5" stroke-linecap="round" stroke-linejoin="round"/>
<path d="M14.73 22C14.5542 22.3031 14.3019 22.5547 13.9982 22.7295C13.6946 22.9044 13.3504 22.9965 13 22.9965C12.6496 22.9965 12.3054 22.9044 12.0018 22.7295C11.6982 22.5547 11.4458 22.3031 11.27 22" stroke="black" stroke-width="1.5" stroke-linecap="round" stroke-linejoin="round"/>
</svg>
