<svg width="167" height="24" viewBox="0 0 167 24" fill="none" xmlns="http://www.w3.org/2000/svg">
<path fill-rule="evenodd" clip-rule="evenodd" d="M3.76223 1.29934C4.04974 0.649492 4.62609 0.192092 5.33482 0.0513593C5.50358 0.0178448 10.7354 -0.00491985 16.9608 0.000911832L28.28 0.0113807L28.7621 0.257294C29.2768 0.51986 29.6668 0.942621 29.8527 1.43951C29.9319 1.65141 29.953 3.06703 29.9697 9.34535L29.9902 16.9931L30.8284 18.0226C31.2895 18.5888 32.0425 19.5144 32.5019 20.0793C33.326 21.0928 33.5708 21.5059 33.5701 21.8815C33.5694 22.2511 33.4168 22.6177 33.138 22.9201C33.0692 22.9948 33.0353 23.059 32.9902 23.1142C32.6879 23.4846 31.8846 23.4461 16.6324 23.4274L0.994227 23.4083L0.701309 23.2145C0.256978 22.9204 0.0310186 22.5308 0.00410865 22.0124C-0.0118406 21.7063 0.0178798 21.5063 0.10669 21.3218C0.216367 21.0937 0.712831 20.4684 3.09911 17.5527L3.64792 16.8821L3.63401 9.25148C3.62023 1.72765 3.62206 1.61635 3.76223 1.29934ZM19.1349 5.05753C19.11 4.95797 18.9987 4.78569 18.8878 4.67475C18.6231 4.41015 18.2787 4.40178 17.9803 4.65283C17.7922 4.81112 17.6812 5.09575 17.0556 7.02414C16.6645 8.2294 16.0767 10.032 15.7495 11.0298C15.2002 12.7049 15.1608 12.863 15.2358 13.0904C15.3428 13.4147 15.6756 13.6261 16.0017 13.5772C16.5082 13.5013 16.5233 13.4664 17.9029 9.19436C18.8245 6.3405 19.1677 5.18815 19.1349 5.05753ZM14.2663 7.06686C14.5479 6.76473 14.5317 6.42818 14.2206 6.11707C13.947 5.84347 13.7003 5.81024 13.3595 6.00114C12.9424 6.23482 9.85949 8.44355 9.59545 8.6979C9.31855 8.96454 9.25103 9.25218 9.40005 9.53056C9.47966 9.6793 13.149 12.3016 13.4237 12.406C13.7056 12.5132 14.0898 12.3757 14.2521 12.1096C14.5899 11.5555 14.4529 11.3731 12.8543 10.2487C11.5439 9.32704 11.3436 9.19125 11.3594 9.15806C11.3638 9.14889 11.3846 9.14756 11.4031 9.13963C11.5997 9.05531 14.1 7.24532 14.2663 7.06686ZM24.9316 8.81404C24.8079 8.65686 21.6648 6.39263 21.064 6.02798C20.9288 5.94584 20.7549 5.88057 20.6776 5.88289C20.2807 5.89476 19.9398 6.2429 19.9398 6.6363C19.9398 6.96814 20.165 7.17056 21.7528 8.26706C22.4523 8.7501 23.0249 9.16113 23.0253 9.18045C23.0256 9.19977 22.3919 9.65576 21.617 10.1938C20.8422 10.7318 20.1575 11.2494 20.0955 11.3441C19.7987 11.797 20.1572 12.4444 20.7049 12.4444C20.9117 12.4444 21.0743 12.376 21.3696 12.1649C21.5846 12.0113 22.4704 11.3826 23.3381 10.7679C24.2316 10.1351 24.949 9.57756 24.9923 9.48236C25.1059 9.233 25.0857 9.00993 24.9316 8.81404Z" fill="black"/>
<path d="M28.3502 17.0032H5.44508C4.11012 18.3147 1.90562 21.0262 1.68611 21.4064C1.42932 21.8512 2.10768 21.9566 2.7049 21.9566H30.6337C31.6173 21.9566 31.5119 21.5701 31.5119 21.3594C31.5119 21.1907 29.5446 18.385 28.3502 17.0032Z" fill="#DAFE38"/>
<path d="M52.1172 7.625V19H50.1562V7.625H52.1172ZM56.7578 12.6016V14.1562H51.6172V12.6016H56.7578ZM57.4062 7.625V9.1875H51.6172V7.625H57.4062ZM63.6953 17.0078V10.5469H65.5859V19H63.8047L63.6953 17.0078ZM63.9609 15.25L64.5938 15.2344C64.5938 15.8021 64.5312 16.3255 64.4062 16.8047C64.2812 17.2786 64.0885 17.6927 63.8281 18.0469C63.5677 18.3958 63.2344 18.6693 62.8281 18.8672C62.4219 19.0599 61.9349 19.1562 61.3672 19.1562C60.9557 19.1562 60.5781 19.0964 60.2344 18.9766C59.8906 18.8568 59.5938 18.6719 59.3438 18.4219C59.099 18.1719 58.9089 17.8464 58.7734 17.4453C58.638 17.0443 58.5703 16.5651 58.5703 16.0078V10.5469H60.4531V16.0234C60.4531 16.3307 60.4896 16.5885 60.5625 16.7969C60.6354 17 60.7344 17.1641 60.8594 17.2891C60.9844 17.4141 61.1302 17.5026 61.2969 17.5547C61.4635 17.6068 61.6406 17.6328 61.8281 17.6328C62.3646 17.6328 62.7865 17.5286 63.0938 17.3203C63.4062 17.1068 63.6276 16.8203 63.7578 16.4609C63.8932 16.1016 63.9609 15.6979 63.9609 15.25ZM69.5312 7V19H67.6406V7H69.5312ZM73.6094 7V19H71.7188V7H73.6094ZM81.8438 16.0703C81.8438 15.8359 81.8073 15.6276 81.7344 15.4453C81.6667 15.263 81.5443 15.0964 81.3672 14.9453C81.1901 14.7943 80.9401 14.6484 80.6172 14.5078C80.2995 14.362 79.8932 14.2135 79.3984 14.0625C78.8568 13.8958 78.3568 13.7109 77.8984 13.5078C77.4453 13.2995 77.0495 13.0599 76.7109 12.7891C76.3724 12.513 76.1094 12.1979 75.9219 11.8438C75.7344 11.4844 75.6406 11.0703 75.6406 10.6016C75.6406 10.138 75.737 9.71615 75.9297 9.33594C76.1276 8.95573 76.4062 8.6276 76.7656 8.35156C77.1302 8.07031 77.5599 7.85417 78.0547 7.70312C78.5495 7.54688 79.0964 7.46875 79.6953 7.46875C80.5391 7.46875 81.2656 7.625 81.875 7.9375C82.4896 8.25 82.9609 8.66927 83.2891 9.19531C83.6224 9.72135 83.7891 10.3021 83.7891 10.9375H81.8438C81.8438 10.5625 81.763 10.2318 81.6016 9.94531C81.4453 9.65365 81.2057 9.42448 80.8828 9.25781C80.5651 9.09115 80.1615 9.00781 79.6719 9.00781C79.2083 9.00781 78.8229 9.07812 78.5156 9.21875C78.2083 9.35938 77.9792 9.54948 77.8281 9.78906C77.6771 10.0286 77.6016 10.2995 77.6016 10.6016C77.6016 10.8151 77.651 11.0104 77.75 11.1875C77.849 11.3594 78 11.5208 78.2031 11.6719C78.4062 11.8177 78.6615 11.9557 78.9688 12.0859C79.276 12.2161 79.638 12.3411 80.0547 12.4609C80.6849 12.6484 81.2344 12.8568 81.7031 13.0859C82.1719 13.3099 82.5625 13.5651 82.875 13.8516C83.1875 14.138 83.4219 14.4635 83.5781 14.8281C83.7344 15.1875 83.8125 15.5964 83.8125 16.0547C83.8125 16.5339 83.7161 16.9661 83.5234 17.3516C83.3307 17.7318 83.0547 18.0573 82.6953 18.3281C82.3411 18.5938 81.9141 18.7995 81.4141 18.9453C80.9193 19.0859 80.3672 19.1562 79.7578 19.1562C79.2109 19.1562 78.6719 19.0833 78.1406 18.9375C77.6146 18.7917 77.1354 18.5703 76.7031 18.2734C76.2708 17.9714 75.9271 17.5964 75.6719 17.1484C75.4167 16.6953 75.2891 16.1667 75.2891 15.5625H77.25C77.25 15.9323 77.3125 16.2474 77.4375 16.5078C77.5677 16.7682 77.7474 16.9818 77.9766 17.1484C78.2057 17.3099 78.4714 17.4297 78.7734 17.5078C79.0807 17.5859 79.4089 17.625 79.7578 17.625C80.2161 17.625 80.599 17.5599 80.9062 17.4297C81.2188 17.2995 81.4531 17.1172 81.6094 16.8828C81.7656 16.6484 81.8438 16.3776 81.8438 16.0703ZM89.2344 10.5469V11.9219H84.4688V10.5469H89.2344ZM85.8438 8.47656H87.7266V16.6641C87.7266 16.9245 87.763 17.125 87.8359 17.2656C87.9141 17.401 88.0208 17.4922 88.1562 17.5391C88.2917 17.5859 88.4505 17.6094 88.6328 17.6094C88.763 17.6094 88.888 17.6016 89.0078 17.5859C89.1276 17.5703 89.224 17.5547 89.2969 17.5391L89.3047 18.9766C89.1484 19.0234 88.9661 19.0651 88.7578 19.1016C88.5547 19.138 88.3203 19.1562 88.0547 19.1562C87.6224 19.1562 87.2396 19.0807 86.9062 18.9297C86.5729 18.7734 86.3125 18.5208 86.125 18.1719C85.9375 17.8229 85.8438 17.3594 85.8438 16.7812V8.47656ZM95.4531 17.3047V13.2734C95.4531 12.9714 95.3984 12.7109 95.2891 12.4922C95.1797 12.2734 95.013 12.1042 94.7891 11.9844C94.5703 11.8646 94.2943 11.8047 93.9609 11.8047C93.6536 11.8047 93.388 11.8568 93.1641 11.9609C92.9401 12.0651 92.7656 12.2057 92.6406 12.3828C92.5156 12.5599 92.4531 12.7604 92.4531 12.9844H90.5781C90.5781 12.651 90.6589 12.3281 90.8203 12.0156C90.9818 11.7031 91.2161 11.4245 91.5234 11.1797C91.8307 10.9349 92.1979 10.7422 92.625 10.6016C93.0521 10.4609 93.5312 10.3906 94.0625 10.3906C94.6979 10.3906 95.2604 10.4974 95.75 10.7109C96.2448 10.9245 96.6328 11.2474 96.9141 11.6797C97.2005 12.1068 97.3438 12.6432 97.3438 13.2891V17.0469C97.3438 17.4323 97.3698 17.7786 97.4219 18.0859C97.4792 18.388 97.5599 18.651 97.6641 18.875V19H95.7344C95.6458 18.7969 95.5755 18.5391 95.5234 18.2266C95.4766 17.9089 95.4531 17.6016 95.4531 17.3047ZM95.7266 13.8594L95.7422 15.0234H94.3906C94.0417 15.0234 93.7344 15.0573 93.4688 15.125C93.2031 15.1875 92.9818 15.2812 92.8047 15.4062C92.6276 15.5312 92.4948 15.6823 92.4062 15.8594C92.3177 16.0365 92.2734 16.237 92.2734 16.4609C92.2734 16.6849 92.3255 16.8906 92.4297 17.0781C92.5339 17.2604 92.6849 17.4036 92.8828 17.5078C93.0859 17.612 93.3307 17.6641 93.6172 17.6641C94.0026 17.6641 94.3385 17.5859 94.625 17.4297C94.9167 17.2682 95.1458 17.0729 95.3125 16.8438C95.4792 16.6094 95.5677 16.388 95.5781 16.1797L96.1875 17.0156C96.125 17.2292 96.0182 17.4583 95.8672 17.7031C95.7161 17.9479 95.5182 18.1823 95.2734 18.4062C95.0339 18.625 94.7448 18.8047 94.4062 18.9453C94.0729 19.0859 93.6875 19.1562 93.25 19.1562C92.6979 19.1562 92.2057 19.0469 91.7734 18.8281C91.3411 18.6042 91.0026 18.3047 90.7578 17.9297C90.513 17.5495 90.3906 17.1198 90.3906 16.6406C90.3906 16.1927 90.474 15.7969 90.6406 15.4531C90.8125 15.1042 91.0625 14.8125 91.3906 14.5781C91.724 14.3438 92.1302 14.1667 92.6094 14.0469C93.0885 13.9219 93.6354 13.8594 94.25 13.8594H95.7266ZM102.766 17.6562C103.073 17.6562 103.349 17.5964 103.594 17.4766C103.844 17.3516 104.044 17.1797 104.195 16.9609C104.352 16.7422 104.438 16.4896 104.453 16.2031H106.227C106.216 16.75 106.055 17.2474 105.742 17.6953C105.43 18.1432 105.016 18.5 104.5 18.7656C103.984 19.026 103.414 19.1562 102.789 19.1562C102.143 19.1562 101.581 19.0469 101.102 18.8281C100.622 18.6042 100.224 18.2969 99.9062 17.9062C99.5885 17.5156 99.349 17.0651 99.1875 16.5547C99.0312 16.0443 98.9531 15.4974 98.9531 14.9141V14.6406C98.9531 14.0573 99.0312 13.5104 99.1875 13C99.349 12.4844 99.5885 12.0312 99.9062 11.6406C100.224 11.25 100.622 10.9453 101.102 10.7266C101.581 10.5026 102.141 10.3906 102.781 10.3906C103.458 10.3906 104.052 10.526 104.562 10.7969C105.073 11.0625 105.474 11.4349 105.766 11.9141C106.062 12.388 106.216 12.9401 106.227 13.5703H104.453C104.438 13.2578 104.359 12.9766 104.219 12.7266C104.083 12.4714 103.891 12.2682 103.641 12.1172C103.396 11.9661 103.102 11.8906 102.758 11.8906C102.378 11.8906 102.062 11.9688 101.812 12.125C101.562 12.276 101.367 12.4844 101.227 12.75C101.086 13.0104 100.984 13.3047 100.922 13.6328C100.865 13.9557 100.836 14.2917 100.836 14.6406V14.9141C100.836 15.263 100.865 15.6016 100.922 15.9297C100.979 16.2578 101.078 16.5521 101.219 16.8125C101.365 17.0677 101.562 17.2734 101.812 17.4297C102.062 17.5807 102.38 17.6562 102.766 17.6562ZM109.57 7V19H107.68V7H109.57ZM114.82 10.5469L111.141 14.625L109.125 16.6875L108.633 15.0938L110.156 13.2109L112.547 10.5469H114.82ZM112.953 19L110.211 15.0312L111.398 13.7109L115.133 19H112.953ZM122.148 7.625V19H120.188V7.625H122.148ZM126.789 12.6016V14.1562H121.648V12.6016H126.789ZM127.438 7.625V9.1875H121.648V7.625H127.438ZM133.727 17.0078V10.5469H135.617V19H133.836L133.727 17.0078ZM133.992 15.25L134.625 15.2344C134.625 15.8021 134.562 16.3255 134.438 16.8047C134.312 17.2786 134.12 17.6927 133.859 18.0469C133.599 18.3958 133.266 18.6693 132.859 18.8672C132.453 19.0599 131.966 19.1562 131.398 19.1562C130.987 19.1562 130.609 19.0964 130.266 18.9766C129.922 18.8568 129.625 18.6719 129.375 18.4219C129.13 18.1719 128.94 17.8464 128.805 17.4453C128.669 17.0443 128.602 16.5651 128.602 16.0078V10.5469H130.484V16.0234C130.484 16.3307 130.521 16.5885 130.594 16.7969C130.667 17 130.766 17.1641 130.891 17.2891C131.016 17.4141 131.161 17.5026 131.328 17.5547C131.495 17.6068 131.672 17.6328 131.859 17.6328C132.396 17.6328 132.818 17.5286 133.125 17.3203C133.438 17.1068 133.659 16.8203 133.789 16.4609C133.924 16.1016 133.992 15.6979 133.992 15.25ZM142.289 16.7109C142.289 16.5234 142.242 16.3542 142.148 16.2031C142.055 16.0469 141.875 15.9062 141.609 15.7812C141.349 15.6562 140.964 15.5417 140.453 15.4375C140.005 15.3385 139.594 15.2214 139.219 15.0859C138.849 14.9453 138.531 14.776 138.266 14.5781C138 14.3802 137.794 14.1458 137.648 13.875C137.503 13.6042 137.43 13.2917 137.43 12.9375C137.43 12.5938 137.505 12.2682 137.656 11.9609C137.807 11.6536 138.023 11.3828 138.305 11.1484C138.586 10.9141 138.927 10.7292 139.328 10.5938C139.734 10.4583 140.188 10.3906 140.688 10.3906C141.396 10.3906 142.003 10.5104 142.508 10.75C143.018 10.9844 143.409 11.3047 143.68 11.7109C143.951 12.112 144.086 12.5651 144.086 13.0703H142.203C142.203 12.8464 142.146 12.638 142.031 12.4453C141.922 12.2474 141.755 12.0885 141.531 11.9688C141.307 11.8438 141.026 11.7812 140.688 11.7812C140.365 11.7812 140.096 11.8333 139.883 11.9375C139.674 12.0365 139.518 12.1667 139.414 12.3281C139.315 12.4896 139.266 12.6667 139.266 12.8594C139.266 13 139.292 13.1276 139.344 13.2422C139.401 13.3516 139.495 13.4531 139.625 13.5469C139.755 13.6354 139.932 13.7188 140.156 13.7969C140.385 13.875 140.672 13.9505 141.016 14.0234C141.661 14.1589 142.216 14.3333 142.68 14.5469C143.148 14.7552 143.508 15.026 143.758 15.3594C144.008 15.6875 144.133 16.1042 144.133 16.6094C144.133 16.9844 144.052 17.3281 143.891 17.6406C143.734 17.9479 143.505 18.2161 143.203 18.4453C142.901 18.6693 142.539 18.8438 142.117 18.9688C141.701 19.0938 141.232 19.1562 140.711 19.1562C139.945 19.1562 139.297 19.0208 138.766 18.75C138.234 18.474 137.831 18.1224 137.555 17.6953C137.284 17.263 137.148 16.8151 137.148 16.3516H138.969C138.99 16.7005 139.086 16.9792 139.258 17.1875C139.435 17.3906 139.654 17.5391 139.914 17.6328C140.18 17.7214 140.453 17.7656 140.734 17.7656C141.073 17.7656 141.357 17.7214 141.586 17.6328C141.815 17.5391 141.99 17.4141 142.109 17.2578C142.229 17.0964 142.289 16.9141 142.289 16.7109ZM147.797 10.5469V19H145.906V10.5469H147.797ZM145.781 8.32812C145.781 8.04167 145.875 7.80469 146.062 7.61719C146.255 7.42448 146.521 7.32812 146.859 7.32812C147.193 7.32812 147.456 7.42448 147.648 7.61719C147.841 7.80469 147.938 8.04167 147.938 8.32812C147.938 8.60938 147.841 8.84375 147.648 9.03125C147.456 9.21875 147.193 9.3125 146.859 9.3125C146.521 9.3125 146.255 9.21875 146.062 9.03125C145.875 8.84375 145.781 8.60938 145.781 8.32812ZM149.5 14.8672V14.6875C149.5 14.0781 149.589 13.513 149.766 12.9922C149.943 12.4661 150.198 12.0104 150.531 11.625C150.87 11.2344 151.281 10.9323 151.766 10.7188C152.255 10.5 152.807 10.3906 153.422 10.3906C154.042 10.3906 154.594 10.5 155.078 10.7188C155.568 10.9323 155.982 11.2344 156.32 11.625C156.659 12.0104 156.917 12.4661 157.094 12.9922C157.271 13.513 157.359 14.0781 157.359 14.6875V14.8672C157.359 15.4766 157.271 16.0417 157.094 16.5625C156.917 17.0833 156.659 17.5391 156.32 17.9297C155.982 18.3151 155.57 18.6172 155.086 18.8359C154.602 19.0495 154.052 19.1562 153.438 19.1562C152.818 19.1562 152.263 19.0495 151.773 18.8359C151.289 18.6172 150.878 18.3151 150.539 17.9297C150.201 17.5391 149.943 17.0833 149.766 16.5625C149.589 16.0417 149.5 15.4766 149.5 14.8672ZM151.383 14.6875V14.8672C151.383 15.2474 151.422 15.6068 151.5 15.9453C151.578 16.2839 151.701 16.5807 151.867 16.8359C152.034 17.0911 152.247 17.2917 152.508 17.4375C152.768 17.5833 153.078 17.6562 153.438 17.6562C153.786 17.6562 154.089 17.5833 154.344 17.4375C154.604 17.2917 154.818 17.0911 154.984 16.8359C155.151 16.5807 155.273 16.2839 155.352 15.9453C155.435 15.6068 155.477 15.2474 155.477 14.8672V14.6875C155.477 14.3125 155.435 13.9583 155.352 13.625C155.273 13.2865 155.148 12.987 154.977 12.7266C154.81 12.4661 154.596 12.263 154.336 12.1172C154.081 11.9661 153.776 11.8906 153.422 11.8906C153.068 11.8906 152.76 11.9661 152.5 12.1172C152.245 12.263 152.034 12.4661 151.867 12.7266C151.701 12.987 151.578 13.2865 151.5 13.625C151.422 13.9583 151.383 14.3125 151.383 14.6875ZM160.805 12.3516V19H158.922V10.5469H160.695L160.805 12.3516ZM160.469 14.4609L159.859 14.4531C159.865 13.8542 159.948 13.3047 160.109 12.8047C160.276 12.3047 160.505 11.875 160.797 11.5156C161.094 11.1562 161.448 10.8802 161.859 10.6875C162.271 10.4896 162.729 10.3906 163.234 10.3906C163.641 10.3906 164.008 10.4479 164.336 10.5625C164.669 10.6719 164.953 10.8516 165.188 11.1016C165.427 11.3516 165.609 11.6771 165.734 12.0781C165.859 12.474 165.922 12.9609 165.922 13.5391V19H164.031V13.5312C164.031 13.125 163.971 12.8047 163.852 12.5703C163.737 12.3307 163.568 12.1615 163.344 12.0625C163.125 11.9583 162.852 11.9062 162.523 11.9062C162.201 11.9062 161.911 11.974 161.656 12.1094C161.401 12.2448 161.185 12.4297 161.008 12.6641C160.836 12.8984 160.703 13.1693 160.609 13.4766C160.516 13.7839 160.469 14.112 160.469 14.4609Z" fill="black"/>
</svg>
