<svg width="24" height="24" viewBox="0 0 24 24" fill="none" xmlns="http://www.w3.org/2000/svg">
<path d="M12 2C6.48 2 2 6.48 2 12C2 17.52 6.48 22 12 22C17.52 22 22 17.52 22 12C22 6.48 17.52 2 12 2ZM16.64 8.8C16.49 10.38 15.84 14.22 15.51 15.99C15.37 16.74 15.09 16.94 14.83 16.97C14.25 17.03 13.81 16.6 13.25 16.22C12.37 15.62 11.87 15.18 11.02 14.61C10.01 13.93 10.67 13.53 11.24 12.93C11.39 12.77 14.95 9.48 15.05 9.28C15.07 9.24 15.09 9.12 15.05 9.08C15.01 9.04 14.9 9.05 14.82 9.06C14.7 9.07 12.25 10.86 8.52 13.19C7.88 13.59 7.3 13.78 6.78 13.76C6.2 13.74 5.09 13.45 4.25 13.2C3.22 12.89 2.42 12.72 2.49 12.15C2.52 11.88 2.88 11.61 3.4 11.34C6.12 9.95 8.38 8.98 10.18 8.42C12.87 7.58 13.56 7.35 13.96 7.35C14.05 7.35 14.22 7.37 14.33 7.46C14.42 7.54 14.45 7.64 14.46 7.73C14.47 7.82 14.48 7.98 14.47 8.11C14.45 8.78 14.36 10.38 14.28 12.05C14.15 14.49 14.04 16.6 13.99 16.61C13.94 16.62 13.85 16.6 13.8 16.58L13.8 16.58Z" fill="currentColor"/>
</svg>

