<svg width="26" height="26" viewBox="0 0 26 26" fill="none" xmlns="http://www.w3.org/2000/svg">
<path d="M13.0001 2.16669C7.01699 2.16669 2.16675 7.01693 2.16675 13C2.16675 18.9831 7.01699 23.8334 13.0001 23.8334C18.9831 23.8334 23.8334 18.9831 23.8334 13C23.8334 7.01693 18.9831 2.16669 13.0001 2.16669Z" stroke="black" stroke-width="1.6" stroke-linecap="round" stroke-linejoin="round"/>
<path d="M4.62695 19.8745C4.62695 19.8745 7.04173 16.7917 13 16.7917C18.9584 16.7917 21.3732 19.8745 21.3732 19.8745" stroke="black" stroke-width="1.6" stroke-linecap="round" stroke-linejoin="round"/>
<path d="M13 13.0001C14.795 13.0001 16.25 11.545 16.25 9.75006C16.25 7.95514 14.795 6.50006 13 6.50006C11.205 6.50006 9.75 7.95514 9.75 9.75006C9.75 11.545 11.205 13.0001 13 13.0001Z" stroke="black" stroke-width="1.6" stroke-linecap="round" stroke-linejoin="round"/>
</svg>
